<?xml version="1.0" standalone="no"?>
<svg xmlns="http://www.w3.org/2000/svg" xmlns:xlink="http://www.w3.org/1999/xlink" fill="#000000" version="1.1" id="Dog" width="128" height="128" viewBox="0 0 256 256" enable-background="new 0 0 256 256" xml:space="preserve">
<path d="M201,83h22.625C238.744,83,251,70.744,251,55.625V51h-24c0-9.489-7.511-17-17-17h-10V18l-59,66H30.5  C16.417,84,5,95.417,5,109.5v53c0,3.59,2.91,6.5,6.5,6.5h0c3.59,0,6.5-2.91,6.5-6.5v-39c0-1.381,1.119-2.5,2.5-2.5h0  c1.381,0,2.5,1.119,2.5,2.5V173L7.142,191.762c-1.641,1.969-1.845,4.764-0.509,6.95L31,239h24v-1c0-8.837-7.163-16-16-16h0  l-13.692-23.255l31.967-30.087C63.562,162.741,67,154.634,67,146h11c10.792,15.418,28.18,24,47,24h10l5.928,55.805L149,239h24v-1  c0-8.837-7.163-16-16-16h0v-53c15.552-5.925,26-20.357,26-37v-26L201,83z"/>
</svg>