<?xml version="1.0" encoding="UTF-8" standalone="no"?>
<svg
   xmlns:dc="http://purl.org/dc/elements/1.1/"
   xmlns:cc="http://creativecommons.org/ns#"
   xmlns:rdf="http://www.w3.org/1999/02/22-rdf-syntax-ns#"
   xmlns:svg="http://www.w3.org/2000/svg"
   xmlns="http://www.w3.org/2000/svg"
   width="1000"
   height="1000"
   viewBox="0 0 1000 1000"
   version="1.1"
   id="svg8">
  <defs
     id="defs2" />
  <metadata
     id="metadata5">
    <rdf:RDF>
      <cc:Work
         rdf:about="">
        <dc:format>image/svg+xml</dc:format>
        <dc:type
           rdf:resource="http://purl.org/dc/dcmitype/StillImage" />
        <dc:title></dc:title>
        <cc:license
           rdf:resource="https://freesvgfiles.org" />
        <dc:creator>
          <cc:Agent>
            <dc:title>https://freesvgfiles.org</dc:title>
          </cc:Agent>
        </dc:creator>
      </cc:Work>
    </rdf:RDF>
  </metadata>
  <g
     id="layer1"
     transform="translate(0,-122.51965)" />
  <path
     id="path22"
     d="m 19.976179,712.37986 c -2.574686,-4.89652 -5.014655,-19.94299 1.89884,-32.14246 6.913494,-12.19948 23.180978,-21.55328 40.260002,-31.51605 17.079034,-9.96277 34.973641,-20.53686 50.832669,-36.80275 15.85901,-16.26591 29.68656,-38.2273 40.05595,-63.23613 10.36941,-25.00882 17.28307,-53.07019 27.65287,-77.67269 10.3698,-24.60249 24.19697,-45.74992 44.73277,-62.82895 20.5358,-17.07903 47.78384,-30.09302 78.28254,-38.2259 30.49869,-8.13288 64.2533,-11.38632 103.90187,-11.99629 39.64857,-0.60994 85.19636,1.42346 119.76243,-0.20331 34.56605,-1.62676 58.15299,-6.91349 81.53539,-15.04659 23.38241,-8.1331 46.56343,-19.11357 71.77557,-35.17623 25.21215,-16.06267 52.46009,-37.21033 70.55636,-50.42661 18.09627,-13.21628 27.04325,-18.50313 32.53255,-24.60282 5.48929,-6.09968 7.5229,-13.01397 16.87475,-27.65152 9.35184,-14.63756 26.02827,-37.00838 38.43123,-53.27453 12.40297,-16.26614 20.53667,-26.43328 25.4159,-28.67002 4.87922,-2.23674 6.50606,3.45722 6.73309,12.9672 0.22703,9.50998 -0.94559,22.83359 0.0715,27.71354 1.01714,4.87995 4.2245,1.313 10.09507,-5.95678 5.87056,-7.26977 14.41391,-18.25409 18.48009,-21.30431 4.0662,-3.05023 3.65949,1.83028 -0.40791,15.45621 -4.06741,13.62592 -11.79202,35.98663 -14.63893,50.8303 -2.84692,14.84368 -0.81373,22.16314 4.67686,29.28052 5.49058,7.11739 14.43619,14.02991 19.92591,19.72281 5.48971,5.6929 7.52305,10.16626 8.33651,15.45287 0.81346,5.2866 0.40685,11.38581 2.84724,17.89362 2.44039,6.50779 7.72594,13.41964 15.65619,20.12983 7.93026,6.71018 18.5032,13.2166 27.24613,20.33293 8.74291,7.11634 15.65637,14.84313 18.0967,20.73908 2.44034,5.89596 0.40705,9.96254 -4.27048,14.43689 -4.67754,4.47436 -11.99494,9.35262 -21.14602,10.97964 -9.15107,1.62702 -20.12893,6.6e-4 -29.88949,-3.45615 -9.76057,-3.45684 -18.29973,-8.74299 -25.82321,-14.23308 -7.52347,-5.4901 -14.02982,-11.18315 -17.84162,-13.72518 -3.81182,-2.54204 -4.93012,-1.93206 -4.06476,-0.71049 0.86535,1.22157 3.7085,3.04931 7.46977,5.99734 3.76128,2.94804 8.43837,7.01506 14.08069,12.45406 5.64232,5.43898 12.25056,12.25055 17.43548,19.16373 5.18494,6.9132 8.9463,13.92759 12.45392,20.84117 3.50764,6.91358 6.76071,13.72469 10.72588,19.16415 3.96515,5.43946 8.6417,9.50602 11.79317,13.31818 3.15146,3.81215 4.77767,7.36948 2.49949,8.94804 -2.27819,1.57856 -8.45727,1.1762 -14.41551,-0.87067 -5.95824,-2.04688 -11.68421,-5.73521 -16.70145,-10.02839 -5.01723,-4.2932 -9.32309,-9.18949 -12.00837,-11.2104 -2.68527,-2.02091 -3.75125,-1.16548 -5.45559,-0.22826 -1.70433,0.93723 -4.03814,1.95192 -8.31022,1.64687 -4.27209,-0.30508 -10.46999,-1.93076 -16.06232,-5.28615 -5.5923,-3.3554 -10.57327,-8.43801 -14.94493,-13.26716 -4.37165,-4.82917 -8.13327,-9.40412 -13.1654,-13.62302 -5.03216,-4.2189 -11.33558,-8.08229 -15.50337,-9.55683 -4.1678,-1.47454 -6.201,-0.55959 -15.00051,8.13814 -8.7995,8.69774 -24.34369,25.15629 -36.59483,40.71153 -12.25115,15.55525 -21.19705,30.19401 -24.95912,40.86942 -3.76205,10.67541 -2.33887,17.38471 -7.48152,34.60595 -5.14263,17.22126 -16.84899,44.94719 -25.2911,67.00763 -8.44211,22.06044 -13.61781,38.45014 -16.78108,51.82186 -3.16328,13.3717 -4.31341,23.72275 -5.89505,36.0884 -1.58164,12.36565 -3.59426,26.74155 -3.01917,44.28338 0.57507,17.54184 3.73787,38.24381 4.6007,52.3339 0.86283,14.09009 -0.57448,21.56407 -0.35896,30.98421 0.21552,9.42014 2.08398,20.77465 4.45641,30.40844 2.37242,9.63379 5.24758,17.54046 9.41798,21.92634 4.17038,4.38587 9.63352,5.24848 14.66584,5.53591 5.03232,0.28745 9.63316,-10e-5 13.87391,2.30028 4.24073,2.30039 8.12269,7.18878 11.39363,11.17861 3.27094,3.98984 5.93081,7.08105 7.00929,9.95595 1.07849,2.87491 0.57554,5.53334 -1.0423,7.00845 -1.61786,1.4751 -4.34815,1.76249 -13.05095,2.19403 -8.7028,0.43155 -23.35943,1.00631 -34.2869,0.57504 -10.92746,-0.43128 -18.11569,-1.86892 -22.46452,-5.25209 -4.34884,-3.38315 -5.85619,-8.70945 -7.58148,-12.87874 -1.72531,-4.16928 -3.66841,-7.18136 -6.60216,-14.78318 -2.93372,-7.60183 -6.85755,-19.79138 -9.87667,-26.69224 -3.0191,-6.90086 -5.13363,-8.51306 -6.76658,-11.33378 -1.63294,-2.82071 -2.78241,-6.84385 -3.06985,-11.87571 -0.28744,-5.03185 0.28778,-11.07162 -1.72473,-31.77164 -2.01252,-20.70003 -6.61433,-56.07638 -9.20225,-82.81863 -2.58793,-26.74225 -3.16305,-44.8586 -5.03211,-56.21638 -1.86907,-11.35776 -5.03235,-15.9589 -7.47619,-15.67205 -2.44384,0.28685 -4.16925,5.46308 -5.89497,16.24857 -1.72571,10.78549 -3.45057,27.17164 -2.73167,50.89608 0.71887,23.72444 3.88171,54.77779 4.1695,74.18758 0.28781,19.40977 -2.30009,27.17345 -0.71837,39.3963 1.5817,12.22284 7.33173,28.89795 12.36414,39.25031 5.0324,10.35235 9.34552,14.37794 15.02471,19.30228 5.67918,4.92435 12.72429,10.74735 16.24677,16.06647 3.52246,5.3191 3.52246,10.13458 0.1436,12.83149 -3.37886,2.69692 -10.13489,3.2719 -21.71059,3.27191 -11.57571,2e-5 -27.963,-0.57498 -37.30923,-3.73857 -9.34623,-3.1636 -11.64649,-8.91427 -13.65921,-19.12185 -2.01271,-10.20758 -3.73823,-24.8743 -6.32613,-35.51326 -2.58792,-10.63895 -6.0388,-17.25312 -9.63301,-42.70043 -3.59423,-25.44731 -7.33267,-69.73339 -9.63308,-97.48213 -2.30041,-27.74876 -3.16309,-38.96359 -5.46341,-49.45859 -2.30033,-10.49501 -6.03886,-20.27275 -11.2139,-25.0171 -5.17503,-4.74435 -11.78917,-4.45677 -33.21534,-8.62696 -21.42618,-4.17018 -57.65131,-12.7952 -87.26965,-21.70944 -29.61835,-8.91422 -52.62207,-18.11572 -64.69917,-21.85467 -12.0771,-3.73895 -13.2273,-2.01366 -12.93959,3.74135 0.28769,5.75504 2.01167,15.52431 0.43019,28.60853 -1.5815,13.08422 -6.46944,29.4732 -16.6779,47.15856 -10.20848,17.68537 -25.73505,36.66229 -41.11963,55.06629 -15.38457,18.404 -30.62388,36.23111 -38.17268,52.69409 -7.5488,16.46298 -7.40505,31.55727 -4.96076,46.29577 2.44429,14.73851 7.18827,29.11424 11.50183,39.25125 4.31356,10.13699 8.1952,16.03134 12.07795,18.97898 3.88275,2.94766 7.7646,2.94764 11.57428,2.80385 3.80969,-0.14379 7.54875,-0.43141 10.99818,1.437 3.44944,1.8684 6.61358,5.89547 9.77682,9.2744 3.16326,3.37891 6.32621,6.11056 7.40477,8.69779 1.07857,2.58725 0.0725,5.03046 -2.22845,6.54132 -2.30101,1.51086 -5.89394,2.08573 -17.32919,2.37339 -11.43527,0.28765 -30.69143,0.28765 -40.7565,-1.43818 -10.06507,-1.72583 -10.92767,-5.17624 -13.22766,-12.21999 -2.30001,-7.04372 -6.03908,-17.68569 -13.51512,-34.36296 -7.47601,-16.67727 -18.69129,-39.39539 -25.88008,-56.07349 -7.1888,-16.67811 -10.35194,-27.3178 -8.76993,-35.8006 1.582,-8.4828 7.90862,-14.80941 15.38409,-24.15383 7.47549,-9.34443 16.10365,-21.71147 21.56674,-32.638 5.4631,-10.92653 7.76377,-20.4168 6.32655,-19.91436 -1.43721,0.50245 -6.60977,10.99125 -14.52357,21.27964 -7.91379,10.28839 -18.54401,20.344 -28.32165,32.27815 -9.77762,11.93417 -18.69045,25.73465 -23.72343,42.34225 -5.03299,16.60759 -6.18303,36.01461 -5.75177,51.90309 0.43124,15.88846 2.44398,28.25244 5.32025,34.57913 2.87628,6.3267 6.6142,6.61423 10.92684,6.75796 4.31265,0.14374 9.20245,0.14374 13.22716,2.29978 4.02472,2.15604 7.18855,6.47035 10.49555,10.49626 3.30699,4.0259 6.75746,7.76392 6.18305,10.63919 -0.57441,2.87526 -5.1752,4.88811 -16.10495,5.89485 -10.92974,1.00674 -28.17773,1.00674 -38.81732,1.00674 -10.6396,0 -14.66507,0 -17.82915,-6.32843 -3.16407,-6.32844 -5.46383,-18.97716 -7.33283,-35.36704 -1.86901,-16.38986 -3.30687,-36.52003 -5.75103,-54.77914 -2.44417,-18.25908 -5.89499,-34.65048 -6.7574,-45.72138 -0.86239,-11.07089 0.863,-16.82226 5.46338,-22.85996 4.60036,-6.03769 12.07853,-12.36537 19.55405,-22.28499 7.47553,-9.91962 14.95315,-23.43686 20.84757,-37.81374 5.89445,-14.37688 10.20818,-29.61873 12.68707,-45.01649 2.4789,-15.39777 3.12383,-30.95594 1.95928,-31.28567 -1.16457,-0.32973 -4.13844,14.56605 -10.01615,28.14935 -5.87772,13.58331 -14.65626,25.84656 -25.71376,36.81721 -11.05752,10.97065 -24.388,20.6416 -38.67492,28.20993 -14.28693,7.56833 -29.525724,13.03129 -42.753687,17.20101 -13.227964,4.16973 -24.441526,7.045 -31.918217,10.20792 -7.476681,3.16291 -11.214417,6.61312 -14.438458,10.96565 -3.224041,4.35251 -5.931714,9.60382 -8.506399,4.70729 z"
     style="fill:#1a1a1a;fill-opacity:1;stroke:none;stroke-width:1.15166533px;stroke-linecap:butt;stroke-linejoin:miter;stroke-opacity:1" />
</svg>
