<?xml version="1.0" encoding="UTF-8" standalone="no"?>
<svg
   xmlns:dc="http://purl.org/dc/elements/1.1/"
   xmlns:cc="http://creativecommons.org/ns#"
   xmlns:rdf="http://www.w3.org/1999/02/22-rdf-syntax-ns#"
   xmlns:svg="http://www.w3.org/2000/svg"
   xmlns="http://www.w3.org/2000/svg"
   id="svg8"
   version="1.1"
   viewBox="0 0 1000 1000"
   height="1000"
   width="1000">
  <defs
     id="defs2" />
  <metadata
     id="metadata5">
    <rdf:RDF>
      <cc:Work
         rdf:about="">
        <dc:format>image/svg+xml</dc:format>
        <dc:type
           rdf:resource="http://purl.org/dc/dcmitype/StillImage" />
        <dc:title></dc:title>
        <cc:license
           rdf:resource="https://freesvgfiles.org" />
        <dc:creator>
          <cc:Agent>
            <dc:title>https://freesvgfiles.org</dc:title>
          </cc:Agent>
        </dc:creator>
      </cc:Work>
    </rdf:RDF>
  </metadata>
  <g
     transform="translate(0,-122.51965)"
     id="layer1" />
  <path
     style="fill:#1a1a1a;fill-opacity:1;stroke:none;stroke-width:1px;stroke-linecap:butt;stroke-linejoin:miter;stroke-opacity:1"
     d="m 49.313219,777.78021 c 1.124001,-5.993 8.115166,-13.9829 25.091944,-17.47801 16.976778,-3.4951 43.946297,-2.49622 69.164027,-1.74719 25.21774,0.74904 48.68893,1.24843 64.91829,-2.24746 16.22936,-3.49589 25.21838,-10.98674 33.7072,-17.72783 8.48881,-6.7411 16.47968,-12.73425 20.47408,-17.47809 3.99439,-4.74384 3.99439,-8.23992 7.98838,-23.21731 3.99399,-14.97738 11.98619,-41.45152 24.47027,-65.92007 12.48409,-24.46854 29.46341,-46.94117 59.67423,-81.39645 30.21081,-34.45527 73.6581,-80.89892 104.3692,-110.11175 30.7111,-29.21283 48.68878,-41.19796 67.91369,-60.67267 19.22491,-19.47471 39.70036,-46.44237 59.42498,-75.90453 19.72461,-29.46215 38.70142,-61.4231 49.93742,-78.15161 11.236,-16.72851 14.73171,-18.22667 16.4789,-21.47195 1.74719,-3.24528 1.74719,-8.2407 3.49482,-16.35442 1.74763,-8.11372 5.24391,-19.35178 13.48323,-27.71558 8.23932,-8.3638 21.2243,-13.85744 28.09028,-17.3533 6.86599,-3.49586 7.61512,-4.99411 13.60335,-7.73866 5.98823,-2.74454 17.23303,-6.74269 28.71769,-7.61642 11.48465,-0.87373 23.22108,1.37368 31.33536,4.24491 8.11428,2.87124 12.6089,6.36705 17.47799,8.61422 4.86909,2.24717 10.11263,3.24594 14.73106,6.24164 4.61842,2.99571 8.61398,7.99014 11.73503,12.23476 3.12105,4.24461 5.36816,7.74012 10.98692,9.86263 5.61877,2.12251 14.60676,2.87151 23.34537,2.87146 8.73862,-5e-5 17.22876,-0.74918 25.46774,-0.6243 8.23897,0.12488 16.22989,1.12375 21.84756,1.99763 5.61766,0.87389 8.86391,1.62303 10.73606,3.74445 1.87216,2.12142 2.37164,5.61779 1.62259,10.61208 -0.74905,4.9943 -2.74605,11.48454 -4.61883,17.47747 -1.87279,5.99293 -3.62027,11.48499 -7.11609,16.60417 -3.49582,5.11917 -8.73805,9.86214 -16.22949,13.98255 -7.49144,4.1204 -17.22719,7.61528 -20.59809,9.98769 -3.37091,2.3724 -0.37507,3.62066 3.61964,4.6193 3.9947,0.99863 8.98922,1.74781 14.10712,3.37059 5.1179,1.62279 10.36214,4.12005 15.10571,8.1146 4.74356,3.99456 8.98855,9.48807 10.86133,13.73225 1.87278,4.24419 1.37342,7.24031 -0.62449,8.23953 -1.9979,0.99921 -5.49216,8.5e-4 -9.23803,-1.87207 -3.74587,-1.87291 -7.74007,-4.61893 -9.48802,-4.36964 -1.74794,0.24928 -1.2486,3.49501 -2.49694,7.24067 -1.24834,3.74565 -4.24379,7.98921 -8.48897,11.61029 -4.24519,3.62107 -9.73678,6.61648 -20.72482,7.4906 -10.98804,0.87412 -27.46365,-0.37404 -39.44877,-1.62246 -11.98513,-1.24843 -19.47525,-2.49678 -23.47044,-2.37253 -3.99518,0.12426 -4.4945,1.62221 -5.61886,6.74427 -1.12437,5.12206 -2.87076,13.85402 -6.86587,23.09298 -3.9951,9.23897 -10.2364,18.97539 -14.35643,26.2165 -4.12004,7.24112 -6.11727,11.98455 -6.7417,17.22884 -0.62443,5.24428 0.12443,10.98557 -3.5e-4,17.35291 -0.12478,6.36735 -1.12336,13.35747 -0.49911,24.84438 0.62425,11.48692 2.87105,27.46417 1.74754,45.56668 -1.12351,18.10251 -5.6176,38.32589 -11.73501,59.5497 -6.11742,21.22381 -13.8572,43.44446 -19.7246,56.55311 -5.86741,13.10865 -9.86215,17.10338 -11.73529,20.34965 -1.87315,3.24627 -1.62353,5.74249 -1.99816,16.48223 -0.37463,10.73975 -1.37301,29.70901 -1.12338,43.94141 0.24963,14.2324 1.74765,23.71989 3.121,37.20356 1.37336,13.48368 2.62167,30.96009 4.86885,43.9441 2.24717,12.98401 5.4929,21.47284 9.11348,28.83888 3.62057,7.36604 7.61528,13.60776 11.48593,17.10356 3.87066,3.4958 7.61577,4.24482 12.73364,5.24343 5.11788,0.99861 11.61101,2.24729 17.1034,5.24313 5.49239,2.99584 9.98726,7.74042 12.73371,11.98474 2.74645,4.24432 3.74518,7.98956 3.12116,9.48805 -0.62403,1.49848 -2.87078,0.74956 -4.36899,1.12359 -1.4982,0.37403 -2.24706,1.87174 -7.99386,3.12111 -5.74681,1.24937 -16.47465,2.24731 -26.71229,2.3722 -10.23764,0.12489 -19.97435,-0.62409 -25.96745,-3.24622 -5.9931,-2.62214 -8.24005,-7.11604 -11.61058,-13.10808 -3.37053,-5.99204 -7.86525,-13.48325 -11.73531,-20.59919 -3.87006,-7.11594 -7.11609,-13.85769 -11.11055,-18.2268 -3.99446,-4.3691 -8.73876,-6.3667 -10.98613,-10.48745 -2.24738,-4.12074 -1.99772,-10.36221 -2.2474,-17.97677 -0.24968,-7.61457 -0.99886,-16.60471 -3.49555,-28.83836 -2.49668,-12.23364 -6.74175,-27.71565 -9.11374,-36.32973 -2.372,-8.61407 -2.87139,-10.36194 -4.11881,-10.36241 -1.24742,-4.6e-4 -3.24565,1.74799 -7.11729,5.12006 -3.87164,3.37207 -9.61133,8.36311 -12.10871,12.85787 -2.49738,4.49477 -1.74846,8.48898 -1.37386,21.10003 0.3746,12.61105 0.3746,33.83007 0.24977,48.81134 -0.12484,14.98127 -0.37451,23.71982 0.24967,30.21209 0.62418,6.49228 2.12212,10.73641 4.74406,17.72826 2.62194,6.99185 6.3667,16.72823 9.11354,22.09684 2.74684,5.36861 4.49455,6.36729 9.11293,9.73746 4.61838,3.37018 12.1103,9.11399 16.7293,16.22948 4.61899,7.11549 6.36682,15.60493 5.99286,20.34912 -0.37395,4.7442 -2.87057,5.74285 -9.2401,6.36735 -6.36953,0.6245 -16.60165,0.87406 -27.46357,0.37469 -10.86192,-0.49937 -22.34627,-1.74767 -29.4629,-4.49454 -7.11664,-2.74686 -9.86296,-6.99118 -11.48585,-12.98372 -1.62288,-5.99254 -2.12228,-13.73322 -3.62029,-22.84597 -1.49802,-9.11275 -3.99517,-19.60077 -6.74159,-27.21576 -2.74642,-7.61498 -5.74285,-12.35932 -7.86511,-18.6015 -2.12227,-6.24218 -3.37076,-13.98283 -3.62036,-21.72278 -0.24961,-7.73995 0.49952,-15.48099 0.37466,-25.3426 -0.12486,-9.86161 -1.12374,-21.84815 -3.37015,-27.46575 -2.24641,-5.6176 -5.74226,-4.86849 -14.10887,-1.24716 -8.36662,3.62134 -21.59551,10.11098 -35.70337,17.47702 -14.10786,7.36603 -29.08758,15.60488 -38.0764,20.97307 -8.98882,5.3682 -11.9848,7.86485 -11.60988,9.86315 0.37493,1.9983 4.11885,3.49587 11.85849,4.36965 7.73964,0.87379 19.47644,1.12351 31.83521,2.24706 12.35877,1.12355 25.34345,3.12119 33.83217,6.24203 8.48872,3.12085 12.48393,7.36576 14.98073,12.7336 2.4968,5.36784 3.49553,11.85959 1.7481,15.60521 -1.74744,3.74562 -6.24119,4.74423 -14.10779,5.24373 -7.8666,0.4995 -19.0995,0.4995 -30.58558,-0.24957 -11.48608,-0.74906 -23.22021,-2.24703 -36.20432,-3.7452 -12.98411,-1.49818 -23.53543,-3.18408 -35.35258,-4.32403 -11.89413,-1.14739 -24.08317,-5.0735 -35.75864,-2.52985 -5.69314,1.24033 -15.6485,2.55637 -15.3431,8.37505 0.45057,8.58484 16.33934,5.65891 23.80626,9.9189 5.27249,3.00804 9.96445,6.03794 14.58338,10.90648 4.61892,4.86854 7.86493,10.36178 8.36475,14.60609 0.49981,4.24431 -1.74723,7.24036 -5.24352,9.48817 -3.49629,2.24781 -8.23852,3.74536 -18.35287,3.49567 -10.11435,-0.24969 -25.59089,-2.24666 -39.9482,-4.86841 -14.3573,-2.62174 -27.58985,-5.86746 -40.69859,-8.61407 -13.10875,-2.74661 -26.09166,-4.99366 -35.33016,-6.61664 -9.23851,-1.62298 -14.73123,-2.62165 -17.22839,-6.11828 -2.49716,-3.49663 -3.89128,-9.80016 -0.99898,-13.85748 17.0974,-23.98424 -4.49426,-39.82363 -6.61654,-38.94998 -2.12228,0.87365 -5.11779,3.36991 -12.61043,7.74066 -7.49264,4.37074 -19.47318,10.6106 -31.9581,14.48104 -12.48493,3.87043 -25.46723,5.36839 -44.94383,4.99387 -19.47659,-0.37452 -45.44159,-2.62149 -65.16689,-3.99479 -19.72529,-1.37329 -33.20778,-1.87264 -45.068211,-2.74655 -11.860434,-0.87391 -22.096772,-2.12224 -29.587897,-4.74411 -7.491125,-2.62187 -12.234734,-6.61649 -11.110733,-12.60949 z"
     id="path823"
     transform="matrix(1.1113853,0,0,1.1113853,-32.955666,-57.059451)" />
</svg>
