<!DOCTYPE svg PUBLIC "-//W3C//DTD SVG 1.1//EN" "http://www.w3.org/Graphics/SVG/1.1/DTD/svg11.dtd">
<!-- Uploaded to: SVG Repo, www.svgrepo.com, Transformed by: SVG Repo Mixer Tools -->
<svg fill="#000000" width="800px" height="800px" viewBox="-3.12 -3.12 30.24 30.24" id="triple-left-sign" data-name="Flat Color" xmlns="http://www.w3.org/2000/svg" class="icon flat-color" transform="rotate(0)" stroke="#000000" stroke-width="0.00024000000000000003">
<g id="SVGRepo_bgCarrier" stroke-width="0"/>
<g id="SVGRepo_tracerCarrier" stroke-linecap="round" stroke-linejoin="round" stroke="#CCCCCC" stroke-width="0.144"/>
<g id="SVGRepo_iconCarrier">
<path id="secondary" d="M15.5,20a1,1,0,0,1-.71-.29l-7-7a1,1,0,0,1,0-1.42l7-7a1,1,0,1,1,1.42,1.42L9.91,12l6.3,6.29a1,1,0,0,1,0,1.42A1,1,0,0,1,15.5,20Z" style="fill: #000000;"/>
<path id="primary" d="M10,20a1,1,0,0,1-.71-.29l-7-7a1,1,0,0,1,0-1.42l7-7a1,1,0,1,1,1.42,1.42L4.41,12l6.3,6.29a1,1,0,0,1,0,1.42A1,1,0,0,1,10,20Zm11.71-.29a1,1,0,0,0,0-1.42L15.41,12l6.3-6.29a1,1,0,1,0-1.42-1.42l-7,7a1,1,0,0,0,0,1.42l7,7a1,1,0,0,0,1.42,0Z" style="fill: #000000;"/>
</g>
</svg>