<!DOCTYPE svg PUBLIC "-//W3C//DTD SVG 1.1//EN" "http://www.w3.org/Graphics/SVG/1.1/DTD/svg11.dtd">
<!-- Uploaded to: SVG Find, www.svgrepo.com, Transformed by: SVG Find Mixer Tools -->
<svg fill="#fbff00" width="256px" height="256px" version="1.1" viewBox="0 0 512.00 512.00" xmlns="http://www.w3.org/2000/svg" stroke="#fbff00" stroke-width="0.00512" transform="rotate(45)">
<g id="SVGRepo_bgCarrier" stroke-width="0"/>
<g id="SVGRepo_tracerCarrier" stroke-linecap="round" stroke-linejoin="round" stroke="#CCCCCC" stroke-width="1.024"/>
<g id="SVGRepo_iconCarrier"> <path d="m407.87 521.39c13.617-78.246 35.426-100.05 113.67-113.67 4.3477 0 7.8711-3.5273 7.8711-7.875s-3.5234-7.8711-7.8711-7.8711c-78.406-13.305-100.21-35.109-113.67-113.36 0-4.3477-3.5234-7.875-7.8711-7.875s-7.875 3.5273-7.875 7.875c-13.461 78.246-35.266 100.05-113.51 113.51-4.3477 0-7.875 3.5273-7.875 7.875s3.5273 7.8711 7.875 7.8711c78.246 13.617 100.05 35.426 113.67 113.67 0.58984 3.875 3.9414 6.7227 7.8594 6.6836 3.9219-0.039062 7.2148-2.957 7.7266-6.8398z"/> </g>
</svg>